# Blender 3.6.2
# www.blender.org
o Mesh_1
v -0.150000 -0.050000 0.242000
v -0.050000 -0.050000 0.242000
v -0.050000 0.050000 0.242000
v -0.150000 0.050000 0.242000
v -0.050000 -0.050000 0.142000
v -0.150000 -0.050000 0.142000
v -0.150000 0.050000 0.142000
v -0.050000 0.050000 0.142000
v -0.150000 -0.050000 0.242000
v -0.150000 -0.050000 0.142000
v -0.050000 -0.050000 0.142000
v -0.050000 -0.050000 0.242000
v -0.050000 0.050000 0.242000
v -0.050000 0.050000 0.142000
v -0.150000 0.050000 0.142000
v -0.150000 0.050000 0.242000
v -0.150000 -0.050000 0.242000
v -0.150000 0.050000 0.242000
v -0.150000 0.050000 0.142000
v -0.150000 -0.050000 0.142000
v -0.050000 -0.050000 0.242000
v 0.050000 -0.050000 0.242000
v 0.050000 0.050000 0.242000
v -0.050000 0.050000 0.242000
v 0.050000 -0.050000 0.142000
v -0.050000 -0.050000 0.142000
v -0.050000 0.050000 0.142000
v 0.050000 0.050000 0.142000
v -0.050000 -0.050000 0.242000
v -0.050000 -0.050000 0.142000
v 0.050000 -0.050000 0.142000
v 0.050000 -0.050000 0.242000
v 0.050000 0.050000 0.242000
v 0.050000 0.050000 0.142000
v -0.050000 0.050000 0.142000
v -0.050000 0.050000 0.242000
v 0.050000 -0.050000 0.242000
v 0.150000 -0.050000 0.242000
v 0.150000 0.050000 0.242000
v 0.050000 0.050000 0.242000
v 0.150000 -0.050000 0.142000
v 0.050000 -0.050000 0.142000
v 0.050000 0.050000 0.142000
v 0.150000 0.050000 0.142000
v 0.050000 -0.050000 0.242000
v 0.050000 -0.050000 0.142000
v 0.150000 -0.050000 0.142000
v 0.150000 -0.050000 0.242000
v 0.150000 0.050000 0.242000
v 0.150000 0.050000 0.142000
v 0.050000 0.050000 0.142000
v 0.050000 0.050000 0.242000
v 0.150000 -0.050000 0.242000
v 0.150000 -0.050000 0.142000
v 0.150000 0.050000 0.142000
v 0.150000 0.050000 0.242000
v -0.250000 -0.050000 0.142000
v -0.150000 -0.050000 0.142000
v -0.150000 0.050000 0.142000
v -0.250000 0.050000 0.142000
v -0.150000 -0.050000 0.042000
v -0.250000 -0.050000 0.042000
v -0.250000 0.050000 0.042000
v -0.150000 0.050000 0.042000
v -0.250000 -0.050000 0.142000
v -0.250000 -0.050000 0.042000
v -0.150000 -0.050000 0.042000
v -0.150000 -0.050000 0.142000
v -0.150000 0.050000 0.142000
v -0.150000 0.050000 0.042000
v -0.250000 0.050000 0.042000
v -0.250000 0.050000 0.142000
v -0.150000 -0.050000 0.142000
v -0.150000 -0.050000 0.042000
v -0.150000 0.050000 0.042000
v -0.150000 0.050000 0.142000
v -0.250000 -0.050000 0.142000
v -0.250000 0.050000 0.142000
v -0.250000 0.050000 0.042000
v -0.250000 -0.050000 0.042000
v 0.150000 -0.050000 0.142000
v 0.250000 -0.050000 0.142000
v 0.250000 0.050000 0.142000
v 0.150000 0.050000 0.142000
v 0.250000 -0.050000 0.042000
v 0.150000 -0.050000 0.042000
v 0.150000 0.050000 0.042000
v 0.250000 0.050000 0.042000
v 0.150000 -0.050000 0.142000
v 0.150000 -0.050000 0.042000
v 0.250000 -0.050000 0.042000
v 0.250000 -0.050000 0.142000
v 0.250000 0.050000 0.142000
v 0.250000 0.050000 0.042000
v 0.150000 0.050000 0.042000
v 0.150000 0.050000 0.142000
v 0.250000 -0.050000 0.142000
v 0.250000 -0.050000 0.042000
v 0.250000 0.050000 0.042000
v 0.250000 0.050000 0.142000
v 0.150000 -0.050000 0.142000
v 0.150000 0.050000 0.142000
v 0.150000 0.050000 0.042000
v 0.150000 -0.050000 0.042000
v -0.350000 -0.050000 0.042000
v -0.250000 -0.050000 0.042000
v -0.250000 0.050000 0.042000
v -0.350000 0.050000 0.042000
v -0.250000 -0.050000 -0.058000
v -0.350000 -0.050000 -0.058000
v -0.350000 0.050000 -0.058000
v -0.250000 0.050000 -0.058000
v -0.350000 -0.050000 0.042000
v -0.350000 -0.050000 -0.058000
v -0.250000 -0.050000 -0.058000
v -0.250000 -0.050000 0.042000
v -0.250000 0.050000 0.042000
v -0.250000 0.050000 -0.058000
v -0.350000 0.050000 -0.058000
v -0.350000 0.050000 0.042000
v -0.250000 -0.050000 0.042000
v -0.250000 -0.050000 -0.058000
v -0.250000 0.050000 -0.058000
v -0.250000 0.050000 0.042000
v -0.350000 -0.050000 0.042000
v -0.350000 0.050000 0.042000
v -0.350000 0.050000 -0.058000
v -0.350000 -0.050000 -0.058000
v 0.250000 -0.050000 0.042000
v 0.350000 -0.050000 0.042000
v 0.350000 0.050000 0.042000
v 0.250000 0.050000 0.042000
v 0.350000 -0.050000 -0.058000
v 0.250000 -0.050000 -0.058000
v 0.250000 0.050000 -0.058000
v 0.350000 0.050000 -0.058000
v 0.250000 -0.050000 0.042000
v 0.250000 -0.050000 -0.058000
v 0.350000 -0.050000 -0.058000
v 0.350000 -0.050000 0.042000
v 0.350000 0.050000 0.042000
v 0.350000 0.050000 -0.058000
v 0.250000 0.050000 -0.058000
v 0.250000 0.050000 0.042000
v 0.350000 -0.050000 0.042000
v 0.350000 -0.050000 -0.058000
v 0.350000 0.050000 -0.058000
v 0.350000 0.050000 0.042000
v 0.250000 -0.050000 0.042000
v 0.250000 0.050000 0.042000
v 0.250000 0.050000 -0.058000
v 0.250000 -0.050000 -0.058000
v -0.250000 -0.050000 -0.258000
v -0.150000 -0.050000 -0.258000
v -0.150000 0.050000 -0.258000
v -0.250000 0.050000 -0.258000
v -0.150000 -0.050000 -0.358000
v -0.250000 -0.050000 -0.358000
v -0.250000 0.050000 -0.358000
v -0.150000 0.050000 -0.358000
v -0.250000 -0.050000 -0.258000
v -0.250000 -0.050000 -0.358000
v -0.150000 -0.050000 -0.358000
v -0.150000 -0.050000 -0.258000
v -0.150000 0.050000 -0.258000
v -0.150000 0.050000 -0.358000
v -0.250000 0.050000 -0.358000
v -0.250000 0.050000 -0.258000
v -0.150000 -0.050000 -0.258000
v -0.150000 -0.050000 -0.358000
v -0.150000 0.050000 -0.358000
v -0.150000 0.050000 -0.258000
v -0.250000 -0.050000 -0.258000
v -0.250000 0.050000 -0.258000
v -0.250000 0.050000 -0.358000
v -0.250000 -0.050000 -0.358000
v 0.150000 -0.050000 -0.258000
v 0.250000 -0.050000 -0.258000
v 0.250000 0.050000 -0.258000
v 0.150000 0.050000 -0.258000
v 0.250000 -0.050000 -0.358000
v 0.150000 -0.050000 -0.358000
v 0.150000 0.050000 -0.358000
v 0.250000 0.050000 -0.358000
v 0.150000 -0.050000 -0.258000
v 0.150000 -0.050000 -0.358000
v 0.250000 -0.050000 -0.358000
v 0.250000 -0.050000 -0.258000
v 0.250000 0.050000 -0.258000
v 0.250000 0.050000 -0.358000
v 0.150000 0.050000 -0.358000
v 0.150000 0.050000 -0.258000
v 0.250000 -0.050000 -0.258000
v 0.250000 -0.050000 -0.358000
v 0.250000 0.050000 -0.358000
v 0.250000 0.050000 -0.258000
v 0.150000 -0.050000 -0.258000
v 0.150000 0.050000 -0.258000
v 0.150000 0.050000 -0.358000
v 0.150000 -0.050000 -0.358000
vn -0.0000 -0.0000 1.0000
vn -0.0000 -0.0000 -1.0000
vn -0.0000 -1.0000 -0.0000
vn -0.0000 1.0000 -0.0000
vn -1.0000 -0.0000 -0.0000
vn 1.0000 -0.0000 -0.0000
vt 0.093750 0.968750
vt 0.156250 0.968750
s 0
f 1/1/1 2/1/1 3/1/1
f 3/1/1 4/1/1 1/1/1
f 5/1/2 6/1/2 7/1/2
f 7/1/2 8/1/2 5/1/2
f 9/1/3 10/1/3 11/1/3
f 11/1/3 12/1/3 9/1/3
f 13/1/4 14/1/4 15/1/4
f 15/1/4 16/1/4 13/1/4
f 17/1/5 18/1/5 19/1/5
f 19/1/5 20/1/5 17/1/5
f 21/1/1 22/1/1 23/1/1
f 23/1/1 24/1/1 21/1/1
f 25/1/2 26/1/2 27/1/2
f 27/1/2 28/1/2 25/1/2
f 29/1/3 30/1/3 31/1/3
f 31/1/3 32/1/3 29/1/3
f 33/1/4 34/1/4 35/1/4
f 35/1/4 36/1/4 33/1/4
f 37/1/1 38/1/1 39/1/1
f 39/1/1 40/1/1 37/1/1
f 41/1/2 42/1/2 43/1/2
f 43/1/2 44/1/2 41/1/2
f 45/1/3 46/1/3 47/1/3
f 47/1/3 48/1/3 45/1/3
f 49/1/4 50/1/4 51/1/4
f 51/1/4 52/1/4 49/1/4
f 53/1/6 54/1/6 55/1/6
f 55/1/6 56/1/6 53/1/6
f 57/1/1 58/1/1 59/1/1
f 59/1/1 60/1/1 57/1/1
f 61/1/2 62/1/2 63/1/2
f 63/1/2 64/1/2 61/1/2
f 65/1/3 66/1/3 67/1/3
f 67/1/3 68/1/3 65/1/3
f 69/1/4 70/1/4 71/1/4
f 71/1/4 72/1/4 69/1/4
f 73/1/6 74/1/6 75/1/6
f 75/1/6 76/1/6 73/1/6
f 77/1/5 78/1/5 79/1/5
f 79/1/5 80/1/5 77/1/5
f 81/1/1 82/1/1 83/1/1
f 83/1/1 84/1/1 81/1/1
f 85/1/2 86/1/2 87/1/2
f 87/1/2 88/1/2 85/1/2
f 89/1/3 90/1/3 91/1/3
f 91/1/3 92/1/3 89/1/3
f 93/1/4 94/1/4 95/1/4
f 95/1/4 96/1/4 93/1/4
f 97/1/6 98/1/6 99/1/6
f 99/1/6 100/1/6 97/1/6
f 101/1/5 102/1/5 103/1/5
f 103/1/5 104/1/5 101/1/5
f 105/1/1 106/1/1 107/1/1
f 107/1/1 108/1/1 105/1/1
f 109/1/2 110/1/2 111/1/2
f 111/1/2 112/1/2 109/1/2
f 113/1/3 114/1/3 115/1/3
f 115/1/3 116/1/3 113/1/3
f 117/1/4 118/1/4 119/1/4
f 119/1/4 120/1/4 117/1/4
f 121/1/6 122/1/6 123/1/6
f 123/1/6 124/1/6 121/1/6
f 125/1/5 126/1/5 127/1/5
f 127/1/5 128/1/5 125/1/5
f 129/1/1 130/1/1 131/1/1
f 131/1/1 132/1/1 129/1/1
f 133/1/2 134/1/2 135/1/2
f 135/1/2 136/1/2 133/1/2
f 137/1/3 138/1/3 139/1/3
f 139/1/3 140/1/3 137/1/3
f 141/1/4 142/1/4 143/1/4
f 143/1/4 144/1/4 141/1/4
f 145/1/6 146/1/6 147/1/6
f 147/1/6 148/1/6 145/1/6
f 149/1/5 150/1/5 151/1/5
f 151/1/5 152/1/5 149/1/5
f 153/2/1 154/2/1 155/2/1
f 155/2/1 156/2/1 153/2/1
f 157/2/2 158/2/2 159/2/2
f 159/2/2 160/2/2 157/2/2
f 161/2/3 162/2/3 163/2/3
f 163/2/3 164/2/3 161/2/3
f 165/2/4 166/2/4 167/2/4
f 167/2/4 168/2/4 165/2/4
f 169/2/6 170/2/6 171/2/6
f 171/2/6 172/2/6 169/2/6
f 173/2/5 174/2/5 175/2/5
f 175/2/5 176/2/5 173/2/5
f 177/2/1 178/2/1 179/2/1
f 179/2/1 180/2/1 177/2/1
f 181/2/2 182/2/2 183/2/2
f 183/2/2 184/2/2 181/2/2
f 185/2/3 186/2/3 187/2/3
f 187/2/3 188/2/3 185/2/3
f 189/2/4 190/2/4 191/2/4
f 191/2/4 192/2/4 189/2/4
f 193/2/6 194/2/6 195/2/6
f 195/2/6 196/2/6 193/2/6
f 197/2/5 198/2/5 199/2/5
f 199/2/5 200/2/5 197/2/5
